<?xml version='1.0' encoding='UTF-8'?>
<svg class="phishguard-landing-qr" width="70.2mm" height="70.2mm" version="1.1" viewBox="0 0 70.2 70.2" xmlns="http://www.w3.org/2000/svg"><path d="M9,9H10.8V10.8H9zM10.8,9H12.6V10.8H10.8zM12.6,9H14.4V10.8H12.6zM14.4,9H16.2V10.8H14.4zM16.2,9H18V10.8H16.2zM18,9H19.8V10.8H18zM19.8,9H21.6V10.8H19.8zM25.2,9H27V10.8H25.2zM27,9H28.8V10.8H27zM30.6,9H32.4V10.8H30.6zM32.4,9H34.2V10.8H32.4zM36,9H37.8V10.8H36zM39.6,9H41.4V10.8H39.6zM43.2,9H45V10.8H43.2zM45,9H46.8V10.8H45zM48.6,9H50.4V10.8H48.6zM50.4,9H52.2V10.8H50.4zM52.2,9H54V10.8H52.2zM54,9H55.8V10.8H54zM55.8,9H57.6V10.8H55.8zM57.6,9H59.4V10.8H57.6zM59.4,9H61.2V10.8H59.4zM9,10.8H10.8V12.6H9zM19.8,10.8H21.6V12.6H19.8zM23.4,10.8H25.2V12.6H23.4zM28.8,10.8H30.6V12.6H28.8zM32.4,10.8H34.2V12.6H32.4zM34.2,10.8H36V12.6H34.2zM36,10.8H37.8V12.6H36zM45,10.8H46.8V12.6H45zM48.6,10.8H50.4V12.6H48.6zM59.4,10.8H61.2V12.6H59.4zM9,12.6H10.8V14.4H9zM12.6,12.6H14.4V14.4H12.6zM14.4,12.6H16.2V14.4H14.4zM16.2,12.6H18V14.4H16.2zM19.8,12.6H21.6V14.4H19.8zM23.4,12.6H25.2V14.4H23.4zM25.2,12.6H27V14.4H25.2zM27,12.6H28.8V14.4H27zM32.4,12.6H34.2V14.4H32.4zM34.2,12.6H36V14.4H34.2zM36,12.6H37.8V14.4H36zM43.2,12.6H45V14.4H43.2zM45,12.6H46.8V14.4H45zM48.6,12.6H50.4V14.4H48.6zM52.2,12.6H54V14.4H52.2zM54,12.6H55.8V14.4H54zM55.8,12.6H57.6V14.4H55.8zM59.4,12.6H61.2V14.4H59.4zM9,14.4H10.8V16.2H9zM12.6,14.4H14.4V16.2H12.6zM14.4,14.4H16.2V16.2H14.4zM16.2,14.4H18V16.2H16.2zM19.8,14.4H21.6V16.2H19.8zM23.4,14.4H25.2V16.2H23.4zM32.4,14.4H34.2V16.2H32.4zM34.2,14.4H36V16.2H34.2zM36,14.4H37.8V16.2H36zM37.8,14.4H39.6V16.2H37.8zM45,14.4H46.8V16.2H45zM48.6,14.4H50.4V16.2H48.6zM52.2,14.4H54V16.2H52.2zM54,14.4H55.8V16.2H54zM55.8,14.4H57.6V16.2H55.8zM59.4,14.4H61.2V16.2H59.4zM9,16.2H10.8V18H9zM12.6,16.2H14.4V18H12.6zM14.4,16.2H16.2V18H14.4zM16.2,16.2H18V18H16.2zM19.8,16.2H21.6V18H19.8zM23.4,16.2H25.2V18H23.4zM27,16.2H28.8V18H27zM30.6,16.2H32.4V18H30.6zM34.2,16.2H36V18H34.2zM36,16.2H37.8V18H36zM45,16.2H46.8V18H45zM48.6,16.2H50.4V18H48.6zM52.2,16.2H54V18H52.2zM54,16.2H55.8V18H54zM55.8,16.2H57.6V18H55.8zM59.4,16.2H61.2V18H59.4zM9,18H10.8V19.8H9zM19.8,18H21.6V19.8H19.8zM23.4,18H25.2V19.8H23.4zM28.8,18H30.6V19.8H28.8zM30.6,18H32.4V19.8H30.6zM34.2,18H36V19.8H34.2zM39.6,18H41.4V19.8H39.6zM41.4,18H43.2V19.8H41.4zM43.2,18H45V19.8H43.2zM45,18H46.8V19.8H45zM48.6,18H50.4V19.8H48.6zM59.4,18H61.2V19.8H59.4zM9,19.8H10.8V21.6H9zM10.8,19.8H12.6V21.6H10.8zM12.6,19.8H14.4V21.6H12.6zM14.4,19.8H16.2V21.6H14.4zM16.2,19.8H18V21.6H16.2zM18,19.8H19.8V21.6H18zM19.8,19.8H21.6V21.6H19.8zM23.4,19.8H25.2V21.6H23.4zM27,19.8H28.8V21.6H27zM30.6,19.8H32.4V21.6H30.6zM34.2,19.8H36V21.6H34.2zM37.8,19.8H39.6V21.6H37.8zM41.4,19.8H43.2V21.6H41.4zM45,19.8H46.8V21.6H45zM48.6,19.8H50.4V21.6H48.6zM50.4,19.8H52.2V21.6H50.4zM52.2,19.8H54V21.6H52.2zM54,19.8H55.8V21.6H54zM55.8,19.8H57.6V21.6H55.8zM57.6,19.8H59.4V21.6H57.6zM59.4,19.8H61.2V21.6H59.4zM30.6,21.6H32.4V23.4H30.6zM32.4,21.6H34.2V23.4H32.4zM34.2,21.6H36V23.4H34.2zM39.6,21.6H41.4V23.4H39.6zM43.2,21.6H45V23.4H43.2zM45,21.6H46.8V23.4H45zM12.6,23.4H14.4V25.2H12.6zM18,23.4H19.8V25.2H18zM19.8,23.4H21.6V25.2H19.8zM21.6,23.4H23.4V25.2H21.6zM23.4,23.4H25.2V25.2H23.4zM27,23.4H28.8V25.2H27zM36,23.4H37.8V25.2H36zM39.6,23.4H41.4V25.2H39.6zM45,23.4H46.8V25.2H45zM46.8,23.4H48.6V25.2H46.8zM50.4,23.4H52.2V25.2H50.4zM52.2,23.4H54V25.2H52.2zM54,23.4H55.8V25.2H54zM55.8,23.4H57.6V25.2H55.8zM57.6,23.4H59.4V25.2H57.6zM9,25.2H10.8V27H9zM12.6,25.2H14.4V27H12.6zM16.2,25.2H18V27H16.2zM18,25.2H19.8V27H18zM23.4,25.2H25.2V27H23.4zM25.2,25.2H27V27H25.2zM27,25.2H28.8V27H27zM34.2,25.2H36V27H34.2zM36,25.2H37.8V27H36zM39.6,25.2H41.4V27H39.6zM45,25.2H46.8V27H45zM54,25.2H55.8V27H54zM57.6,25.2H59.4V27H57.6zM59.4,25.2H61.2V27H59.4zM9,27H10.8V28.8H9zM12.6,27H14.4V28.8H12.6zM14.4,27H16.2V28.8H14.4zM18,27H19.8V28.8H18zM19.8,27H21.6V28.8H19.8zM21.6,27H23.4V28.8H21.6zM23.4,27H25.2V28.8H23.4zM34.2,27H36V28.8H34.2zM36,27H37.8V28.8H36zM39.6,27H41.4V28.8H39.6zM41.4,27H43.2V28.8H41.4zM45,27H46.8V28.8H45zM48.6,27H50.4V28.8H48.6zM52.2,27H54V28.8H52.2zM59.4,27H61.2V28.8H59.4zM10.8,28.8H12.6V30.6H10.8zM18,28.8H19.8V30.6H18zM21.6,28.8H23.4V30.6H21.6zM25.2,28.8H27V30.6H25.2zM27,28.8H28.8V30.6H27zM30.6,28.8H32.4V30.6H30.6zM32.4,28.8H34.2V30.6H32.4zM34.2,28.8H36V30.6H34.2zM37.8,28.8H39.6V30.6H37.8zM39.6,28.8H41.4V30.6H39.6zM43.2,28.8H45V30.6H43.2zM45,28.8H46.8V30.6H45zM46.8,28.8H48.6V30.6H46.8zM48.6,28.8H50.4V30.6H48.6zM54,28.8H55.8V30.6H54zM55.8,28.8H57.6V30.6H55.8zM10.8,30.6H12.6V32.4H10.8zM14.4,30.6H16.2V32.4H14.4zM19.8,30.6H21.6V32.4H19.8zM23.4,30.6H25.2V32.4H23.4zM25.2,30.6H27V32.4H25.2zM27,30.6H28.8V32.4H27zM32.4,30.6H34.2V32.4H32.4zM36,30.6H37.8V32.4H36zM55.8,30.6H57.6V32.4H55.8zM57.6,30.6H59.4V32.4H57.6zM10.8,32.4H12.6V34.2H10.8zM14.4,32.4H16.2V34.2H14.4zM21.6,32.4H23.4V34.2H21.6zM30.6,32.4H32.4V34.2H30.6zM32.4,32.4H34.2V34.2H32.4zM34.2,32.4H36V34.2H34.2zM36,32.4H37.8V34.2H36zM37.8,32.4H39.6V34.2H37.8zM41.4,32.4H43.2V34.2H41.4zM45,32.4H46.8V34.2H45zM48.6,32.4H50.4V34.2H48.6zM52.2,32.4H54V34.2H52.2zM54,32.4H55.8V34.2H54zM12.6,34.2H14.4V36H12.6zM14.4,34.2H16.2V36H14.4zM18,34.2H19.8V36H18zM19.8,34.2H21.6V36H19.8zM25.2,34.2H27V36H25.2zM27,34.2H28.8V36H27zM32.4,34.2H34.2V36H32.4zM36,34.2H37.8V36H36zM39.6,34.2H41.4V36H39.6zM43.2,34.2H45V36H43.2zM45,34.2H46.8V36H45zM48.6,34.2H50.4V36H48.6zM50.4,34.2H52.2V36H50.4zM52.2,34.2H54V36H52.2zM54,34.2H55.8V36H54zM55.8,34.2H57.6V36H55.8zM9,36H10.8V37.8H9zM10.8,36H12.6V37.8H10.8zM12.6,36H14.4V37.8H12.6zM14.4,36H16.2V37.8H14.4zM18,36H19.8V37.8H18zM25.2,36H27V37.8H25.2zM28.8,36H30.6V37.8H28.8zM32.4,36H34.2V37.8H32.4zM34.2,36H36V37.8H34.2zM41.4,36H43.2V37.8H41.4zM43.2,36H45V37.8H43.2zM45,36H46.8V37.8H45zM48.6,36H50.4V37.8H48.6zM54,36H55.8V37.8H54zM59.4,36H61.2V37.8H59.4zM9,37.8H10.8V39.6H9zM10.8,37.8H12.6V39.6H10.8zM16.2,37.8H18V39.6H16.2zM18,37.8H19.8V39.6H18zM19.8,37.8H21.6V39.6H19.8zM21.6,37.8H23.4V39.6H21.6zM23.4,37.8H25.2V39.6H23.4zM25.2,37.8H27V39.6H25.2zM28.8,37.8H30.6V39.6H28.8zM34.2,37.8H36V39.6H34.2zM36,37.8H37.8V39.6H36zM39.6,37.8H41.4V39.6H39.6zM43.2,37.8H45V39.6H43.2zM45,37.8H46.8V39.6H45zM46.8,37.8H48.6V39.6H46.8zM50.4,37.8H52.2V39.6H50.4zM52.2,37.8H54V39.6H52.2zM12.6,39.6H14.4V41.4H12.6zM18,39.6H19.8V41.4H18zM21.6,39.6H23.4V41.4H21.6zM23.4,39.6H25.2V41.4H23.4zM25.2,39.6H27V41.4H25.2zM28.8,39.6H30.6V41.4H28.8zM32.4,39.6H34.2V41.4H32.4zM36,39.6H37.8V41.4H36zM39.6,39.6H41.4V41.4H39.6zM41.4,39.6H43.2V41.4H41.4zM50.4,39.6H52.2V41.4H50.4zM52.2,39.6H54V41.4H52.2zM55.8,39.6H57.6V41.4H55.8zM59.4,39.6H61.2V41.4H59.4zM9,41.4H10.8V43.2H9zM10.8,41.4H12.6V43.2H10.8zM12.6,41.4H14.4V43.2H12.6zM19.8,41.4H21.6V43.2H19.8zM21.6,41.4H23.4V43.2H21.6zM23.4,41.4H25.2V43.2H23.4zM25.2,41.4H27V43.2H25.2zM28.8,41.4H30.6V43.2H28.8zM30.6,41.4H32.4V43.2H30.6zM34.2,41.4H36V43.2H34.2zM36,41.4H37.8V43.2H36zM43.2,41.4H45V43.2H43.2zM45,41.4H46.8V43.2H45zM48.6,41.4H50.4V43.2H48.6zM54,41.4H55.8V43.2H54zM55.8,41.4H57.6V43.2H55.8zM59.4,41.4H61.2V43.2H59.4zM14.4,43.2H16.2V45H14.4zM16.2,43.2H18V45H16.2zM18,43.2H19.8V45H18zM21.6,43.2H23.4V45H21.6zM23.4,43.2H25.2V45H23.4zM27,43.2H28.8V45H27zM37.8,43.2H39.6V45H37.8zM39.6,43.2H41.4V45H39.6zM41.4,43.2H43.2V45H41.4zM46.8,43.2H48.6V45H46.8zM48.6,43.2H50.4V45H48.6zM50.4,43.2H52.2V45H50.4zM52.2,43.2H54V45H52.2zM54,43.2H55.8V45H54zM55.8,43.2H57.6V45H55.8zM9,45H10.8V46.8H9zM10.8,45H12.6V46.8H10.8zM12.6,45H14.4V46.8H12.6zM14.4,45H16.2V46.8H14.4zM16.2,45H18V46.8H16.2zM19.8,45H21.6V46.8H19.8zM21.6,45H23.4V46.8H21.6zM23.4,45H25.2V46.8H23.4zM30.6,45H32.4V46.8H30.6zM32.4,45H34.2V46.8H32.4zM36,45H37.8V46.8H36zM39.6,45H41.4V46.8H39.6zM41.4,45H43.2V46.8H41.4zM45,45H46.8V46.8H45zM46.8,45H48.6V46.8H46.8zM48.6,45H50.4V46.8H48.6zM50.4,45H52.2V46.8H50.4zM52.2,45H54V46.8H52.2zM54,45H55.8V46.8H54zM55.8,45H57.6V46.8H55.8zM59.4,45H61.2V46.8H59.4zM23.4,46.8H25.2V48.6H23.4zM25.2,46.8H27V48.6H25.2zM28.8,46.8H30.6V48.6H28.8zM36,46.8H37.8V48.6H36zM39.6,46.8H41.4V48.6H39.6zM45,46.8H46.8V48.6H45zM52.2,46.8H54V48.6H52.2zM54,46.8H55.8V48.6H54zM59.4,46.8H61.2V48.6H59.4zM9,48.6H10.8V50.4H9zM10.8,48.6H12.6V50.4H10.8zM12.6,48.6H14.4V50.4H12.6zM14.4,48.6H16.2V50.4H14.4zM16.2,48.6H18V50.4H16.2zM18,48.6H19.8V50.4H18zM19.8,48.6H21.6V50.4H19.8zM23.4,48.6H25.2V50.4H23.4zM27,48.6H28.8V50.4H27zM30.6,48.6H32.4V50.4H30.6zM37.8,48.6H39.6V50.4H37.8zM39.6,48.6H41.4V50.4H39.6zM43.2,48.6H45V50.4H43.2zM45,48.6H46.8V50.4H45zM48.6,48.6H50.4V50.4H48.6zM52.2,48.6H54V50.4H52.2zM54,48.6H55.8V50.4H54zM55.8,48.6H57.6V50.4H55.8zM59.4,48.6H61.2V50.4H59.4zM9,50.4H10.8V52.2H9zM19.8,50.4H21.6V52.2H19.8zM23.4,50.4H25.2V52.2H23.4zM36,50.4H37.8V52.2H36zM39.6,50.4H41.4V52.2H39.6zM41.4,50.4H43.2V52.2H41.4zM45,50.4H46.8V52.2H45zM52.2,50.4H54V52.2H52.2zM54,50.4H55.8V52.2H54zM57.6,50.4H59.4V52.2H57.6zM9,52.2H10.8V54H9zM12.6,52.2H14.4V54H12.6zM14.4,52.2H16.2V54H14.4zM16.2,52.2H18V54H16.2zM19.8,52.2H21.6V54H19.8zM25.2,52.2H27V54H25.2zM27,52.2H28.8V54H27zM32.4,52.2H34.2V54H32.4zM34.2,52.2H36V54H34.2zM36,52.2H37.8V54H36zM37.8,52.2H39.6V54H37.8zM39.6,52.2H41.4V54H39.6zM41.4,52.2H43.2V54H41.4zM43.2,52.2H45V54H43.2zM45,52.2H46.8V54H45zM46.8,52.2H48.6V54H46.8zM48.6,52.2H50.4V54H48.6zM50.4,52.2H52.2V54H50.4zM52.2,52.2H54V54H52.2zM57.6,52.2H59.4V54H57.6zM59.4,52.2H61.2V54H59.4zM9,54H10.8V55.8H9zM12.6,54H14.4V55.8H12.6zM14.4,54H16.2V55.8H14.4zM16.2,54H18V55.8H16.2zM19.8,54H21.6V55.8H19.8zM27,54H28.8V55.8H27zM28.8,54H30.6V55.8H28.8zM32.4,54H34.2V55.8H32.4zM34.2,54H36V55.8H34.2zM37.8,54H39.6V55.8H37.8zM39.6,54H41.4V55.8H39.6zM45,54H46.8V55.8H45zM46.8,54H48.6V55.8H46.8zM48.6,54H50.4V55.8H48.6zM52.2,54H54V55.8H52.2zM9,55.8H10.8V57.6H9zM12.6,55.8H14.4V57.6H12.6zM14.4,55.8H16.2V57.6H14.4zM16.2,55.8H18V57.6H16.2zM19.8,55.8H21.6V57.6H19.8zM23.4,55.8H25.2V57.6H23.4zM25.2,55.8H27V57.6H25.2zM28.8,55.8H30.6V57.6H28.8zM32.4,55.8H34.2V57.6H32.4zM34.2,55.8H36V57.6H34.2zM36,55.8H37.8V57.6H36zM37.8,55.8H39.6V57.6H37.8zM43.2,55.8H45V57.6H43.2zM45,55.8H46.8V57.6H45zM50.4,55.8H52.2V57.6H50.4zM52.2,55.8H54V57.6H52.2zM54,55.8H55.8V57.6H54zM55.8,55.8H57.6V57.6H55.8zM57.6,55.8H59.4V57.6H57.6zM59.4,55.8H61.2V57.6H59.4zM9,57.6H10.8V59.4H9zM19.8,57.6H21.6V59.4H19.8zM25.2,57.6H27V59.4H25.2zM34.2,57.6H36V59.4H34.2zM37.8,57.6H39.6V59.4H37.8zM54,57.6H55.8V59.4H54zM9,59.4H10.8V61.2H9zM10.8,59.4H12.6V61.2H10.8zM12.6,59.4H14.4V61.2H12.6zM14.4,59.4H16.2V61.2H14.4zM16.2,59.4H18V61.2H16.2zM18,59.4H19.8V61.2H18zM19.8,59.4H21.6V61.2H19.8zM25.2,59.4H27V61.2H25.2zM30.6,59.4H32.4V61.2H30.6zM32.4,59.4H34.2V61.2H32.4zM34.2,59.4H36V61.2H34.2zM46.8,59.4H48.6V61.2H46.8zM50.4,59.4H52.2V61.2H50.4zM52.2,59.4H54V61.2H52.2zM54,59.4H55.8V61.2H54zM55.8,59.4H57.6V61.2H55.8zM59.4,59.4H61.2V61.2H59.4z" id="qr-path" fill="#000000" fill-opacity="1" fill-rule="nonzero" stroke="none" /></svg>