<?xml version='1.0' encoding='UTF-8'?>
<svg class="phishguard-landing-qr" width="108mm" height="108mm" version="1.1" viewBox="0 0 108 108" xmlns="http://www.w3.org/2000/svg"><path d="M19.2,19.2H21.6V21.6H19.2zM21.6,19.2H24V21.6H21.6zM24,19.2H26.4V21.6H24zM26.4,19.2H28.8V21.6H26.4zM28.8,19.2H31.2V21.6H28.8zM31.2,19.2H33.6V21.6H31.2zM33.6,19.2H36V21.6H33.6zM43.2,19.2H45.6V21.6H43.2zM45.6,19.2H48V21.6H45.6zM48,19.2H50.4V21.6H48zM50.4,19.2H52.8V21.6H50.4zM52.8,19.2H55.2V21.6H52.8zM55.2,19.2H57.6V21.6H55.2zM57.6,19.2H60V21.6H57.6zM72,19.2H74.4V21.6H72zM74.4,19.2H76.8V21.6H74.4zM76.8,19.2H79.2V21.6H76.8zM79.2,19.2H81.6V21.6H79.2zM81.6,19.2H84V21.6H81.6zM84,19.2H86.4V21.6H84zM86.4,19.2H88.8V21.6H86.4zM19.2,21.6H21.6V24H19.2zM33.6,21.6H36V24H33.6zM45.6,21.6H48V24H45.6zM48,21.6H50.4V24H48zM50.4,21.6H52.8V24H50.4zM52.8,21.6H55.2V24H52.8zM55.2,21.6H57.6V24H55.2zM57.6,21.6H60V24H57.6zM60,21.6H62.4V24H60zM72,21.6H74.4V24H72zM86.4,21.6H88.8V24H86.4zM19.2,24H21.6V26.4H19.2zM24,24H26.4V26.4H24zM26.4,24H28.8V26.4H26.4zM28.8,24H31.2V26.4H28.8zM33.6,24H36V26.4H33.6zM40.8,24H43.2V26.4H40.8zM43.2,24H45.6V26.4H43.2zM50.4,24H52.8V26.4H50.4zM57.6,24H60V26.4H57.6zM60,24H62.4V26.4H60zM62.4,24H64.8V26.4H62.4zM64.8,24H67.2V26.4H64.8zM72,24H74.4V26.4H72zM76.8,24H79.2V26.4H76.8zM79.2,24H81.6V26.4H79.2zM81.6,24H84V26.4H81.6zM86.4,24H88.8V26.4H86.4zM19.2,26.4H21.6V28.8H19.2zM24,26.4H26.4V28.8H24zM26.4,26.4H28.8V28.8H26.4zM28.8,26.4H31.2V28.8H28.8zM33.6,26.4H36V28.8H33.6zM40.8,26.4H43.2V28.8H40.8zM43.2,26.4H45.6V28.8H43.2zM45.6,26.4H48V28.8H45.6zM48,26.4H50.4V28.8H48zM55.2,26.4H57.6V28.8H55.2zM62.4,26.4H64.8V28.8H62.4zM67.2,26.4H69.6V28.8H67.2zM72,26.4H74.4V28.8H72zM76.8,26.4H79.2V28.8H76.8zM79.2,26.4H81.6V28.8H79.2zM81.6,26.4H84V28.8H81.6zM86.4,26.4H88.8V28.8H86.4zM19.2,28.8H21.6V31.2H19.2zM24,28.8H26.4V31.2H24zM26.4,28.8H28.8V31.2H26.4zM28.8,28.8H31.2V31.2H28.8zM33.6,28.8H36V31.2H33.6zM38.4,28.8H40.8V31.2H38.4zM50.4,28.8H52.8V31.2H50.4zM52.8,28.8H55.2V31.2H52.8zM62.4,28.8H64.8V31.2H62.4zM64.8,28.8H67.2V31.2H64.8zM67.2,28.8H69.6V31.2H67.2zM72,28.8H74.4V31.2H72zM76.8,28.8H79.2V31.2H76.8zM79.2,28.8H81.6V31.2H79.2zM81.6,28.8H84V31.2H81.6zM86.4,28.8H88.8V31.2H86.4zM19.2,31.2H21.6V33.6H19.2zM33.6,31.2H36V33.6H33.6zM40.8,31.2H43.2V33.6H40.8zM57.6,31.2H60V33.6H57.6zM60,31.2H62.4V33.6H60zM62.4,31.2H64.8V33.6H62.4zM67.2,31.2H69.6V33.6H67.2zM72,31.2H74.4V33.6H72zM86.4,31.2H88.8V33.6H86.4zM19.2,33.6H21.6V36H19.2zM21.6,33.6H24V36H21.6zM24,33.6H26.4V36H24zM26.4,33.6H28.8V36H26.4zM28.8,33.6H31.2V36H28.8zM31.2,33.6H33.6V36H31.2zM33.6,33.6H36V36H33.6zM38.4,33.6H40.8V36H38.4zM43.2,33.6H45.6V36H43.2zM48,33.6H50.4V36H48zM52.8,33.6H55.2V36H52.8zM57.6,33.6H60V36H57.6zM62.4,33.6H64.8V36H62.4zM67.2,33.6H69.6V36H67.2zM72,33.6H74.4V36H72zM74.4,33.6H76.8V36H74.4zM76.8,33.6H79.2V36H76.8zM79.2,33.6H81.6V36H79.2zM81.6,33.6H84V36H81.6zM84,33.6H86.4V36H84zM86.4,33.6H88.8V36H86.4zM38.4,36H40.8V38.4H38.4zM40.8,36H43.2V38.4H40.8zM43.2,36H45.6V38.4H43.2zM45.6,36H48V38.4H45.6zM52.8,36H55.2V38.4H52.8zM57.6,36H60V38.4H57.6zM64.8,36H67.2V38.4H64.8zM24,38.4H26.4V40.8H24zM26.4,38.4H28.8V40.8H26.4zM33.6,38.4H36V40.8H33.6zM36,38.4H38.4V40.8H36zM38.4,38.4H40.8V40.8H38.4zM43.2,38.4H45.6V40.8H43.2zM45.6,38.4H48V40.8H45.6zM50.4,38.4H52.8V40.8H50.4zM57.6,38.4H60V40.8H57.6zM62.4,38.4H64.8V40.8H62.4zM69.6,38.4H72V40.8H69.6zM72,38.4H74.4V40.8H72zM76.8,38.4H79.2V40.8H76.8zM19.2,40.8H21.6V43.2H19.2zM26.4,40.8H28.8V43.2H26.4zM28.8,40.8H31.2V43.2H28.8zM36,40.8H38.4V43.2H36zM38.4,40.8H40.8V43.2H38.4zM40.8,40.8H43.2V43.2H40.8zM50.4,40.8H52.8V43.2H50.4zM55.2,40.8H57.6V43.2H55.2zM62.4,40.8H64.8V43.2H62.4zM67.2,40.8H69.6V43.2H67.2zM69.6,40.8H72V43.2H69.6zM76.8,40.8H79.2V43.2H76.8zM79.2,40.8H81.6V43.2H79.2zM86.4,40.8H88.8V43.2H86.4zM21.6,43.2H24V45.6H21.6zM24,43.2H26.4V45.6H24zM26.4,43.2H28.8V45.6H26.4zM33.6,43.2H36V45.6H33.6zM36,43.2H38.4V45.6H36zM38.4,43.2H40.8V45.6H38.4zM43.2,43.2H45.6V45.6H43.2zM45.6,43.2H48V45.6H45.6zM50.4,43.2H52.8V45.6H50.4zM62.4,43.2H64.8V45.6H62.4zM64.8,43.2H67.2V45.6H64.8zM67.2,43.2H69.6V45.6H67.2zM69.6,43.2H72V45.6H69.6zM72,43.2H74.4V45.6H72zM79.2,43.2H81.6V45.6H79.2zM84,43.2H86.4V45.6H84zM21.6,45.6H24V48H21.6zM28.8,45.6H31.2V48H28.8zM31.2,45.6H33.6V48H31.2zM38.4,45.6H40.8V48H38.4zM43.2,45.6H45.6V48H43.2zM45.6,45.6H48V48H45.6zM52.8,45.6H55.2V48H52.8zM55.2,45.6H57.6V48H55.2zM62.4,45.6H64.8V48H62.4zM67.2,45.6H69.6V48H67.2zM69.6,45.6H72V48H69.6zM81.6,45.6H84V48H81.6zM86.4,45.6H88.8V48H86.4zM21.6,48H24V50.4H21.6zM26.4,48H28.8V50.4H26.4zM28.8,48H31.2V50.4H28.8zM33.6,48H36V50.4H33.6zM36,48H38.4V50.4H36zM43.2,48H45.6V50.4H43.2zM45.6,48H48V50.4H45.6zM50.4,48H52.8V50.4H50.4zM57.6,48H60V50.4H57.6zM60,48H62.4V50.4H60zM64.8,48H67.2V50.4H64.8zM67.2,48H69.6V50.4H67.2zM72,48H74.4V50.4H72zM79.2,48H81.6V50.4H79.2zM84,48H86.4V50.4H84zM86.4,48H88.8V50.4H86.4zM24,50.4H26.4V52.8H24zM38.4,50.4H40.8V52.8H38.4zM43.2,50.4H45.6V52.8H43.2zM48,50.4H50.4V52.8H48zM50.4,50.4H52.8V52.8H50.4zM52.8,50.4H55.2V52.8H52.8zM55.2,50.4H57.6V52.8H55.2zM60,50.4H62.4V52.8H60zM62.4,50.4H64.8V52.8H62.4zM72,50.4H74.4V52.8H72zM74.4,50.4H76.8V52.8H74.4zM76.8,50.4H79.2V52.8H76.8zM79.2,50.4H81.6V52.8H79.2zM81.6,50.4H84V52.8H81.6zM19.2,52.8H21.6V55.2H19.2zM28.8,52.8H31.2V55.2H28.8zM31.2,52.8H33.6V55.2H31.2zM33.6,52.8H36V55.2H33.6zM38.4,52.8H40.8V55.2H38.4zM43.2,52.8H45.6V55.2H43.2zM45.6,52.8H48V55.2H45.6zM52.8,52.8H55.2V55.2H52.8zM55.2,52.8H57.6V55.2H55.2zM60,52.8H62.4V55.2H60zM64.8,52.8H67.2V55.2H64.8zM69.6,52.8H72V55.2H69.6zM72,52.8H74.4V55.2H72zM79.2,52.8H81.6V55.2H79.2zM84,52.8H86.4V55.2H84zM21.6,55.2H24V57.6H21.6zM28.8,55.2H31.2V57.6H28.8zM31.2,55.2H33.6V57.6H31.2zM38.4,55.2H40.8V57.6H38.4zM40.8,55.2H43.2V57.6H40.8zM43.2,55.2H45.6V57.6H43.2zM45.6,55.2H48V57.6H45.6zM50.4,55.2H52.8V57.6H50.4zM52.8,55.2H55.2V57.6H52.8zM57.6,55.2H60V57.6H57.6zM64.8,55.2H67.2V57.6H64.8zM67.2,55.2H69.6V57.6H67.2zM69.6,55.2H72V57.6H69.6zM72,55.2H74.4V57.6H72zM76.8,55.2H79.2V57.6H76.8zM79.2,55.2H81.6V57.6H79.2zM84,55.2H86.4V57.6H84zM86.4,55.2H88.8V57.6H86.4zM24,57.6H26.4V60H24zM26.4,57.6H28.8V60H26.4zM33.6,57.6H36V60H33.6zM38.4,57.6H40.8V60H38.4zM40.8,57.6H43.2V60H40.8zM48,57.6H50.4V60H48zM52.8,57.6H55.2V60H52.8zM55.2,57.6H57.6V60H55.2zM60,57.6H62.4V60H60zM67.2,57.6H69.6V60H67.2zM72,57.6H74.4V60H72zM74.4,57.6H76.8V60H74.4zM79.2,57.6H81.6V60H79.2zM84,57.6H86.4V60H84zM86.4,57.6H88.8V60H86.4zM21.6,60H24V62.4H21.6zM31.2,60H33.6V62.4H31.2zM36,60H38.4V62.4H36zM38.4,60H40.8V62.4H38.4zM40.8,60H43.2V62.4H40.8zM48,60H50.4V62.4H48zM57.6,60H60V62.4H57.6zM60,60H62.4V62.4H60zM62.4,60H64.8V62.4H62.4zM64.8,60H67.2V62.4H64.8zM72,60H74.4V62.4H72zM74.4,60H76.8V62.4H74.4zM76.8,60H79.2V62.4H76.8zM79.2,60H81.6V62.4H79.2zM81.6,60H84V62.4H81.6zM19.2,62.4H21.6V64.8H19.2zM28.8,62.4H31.2V64.8H28.8zM31.2,62.4H33.6V64.8H31.2zM33.6,62.4H36V64.8H33.6zM43.2,62.4H45.6V64.8H43.2zM55.2,62.4H57.6V64.8H55.2zM60,62.4H62.4V64.8H60zM62.4,62.4H64.8V64.8H62.4zM74.4,62.4H76.8V64.8H74.4zM26.4,64.8H28.8V67.2H26.4zM28.8,64.8H31.2V67.2H28.8zM36,64.8H38.4V67.2H36zM38.4,64.8H40.8V67.2H38.4zM48,64.8H50.4V67.2H48zM50.4,64.8H52.8V67.2H50.4zM52.8,64.8H55.2V67.2H52.8zM67.2,64.8H69.6V67.2H67.2zM69.6,64.8H72V67.2H69.6zM72,64.8H74.4V67.2H72zM76.8,64.8H79.2V67.2H76.8zM79.2,64.8H81.6V67.2H79.2zM21.6,67.2H24V69.6H21.6zM24,67.2H26.4V69.6H24zM28.8,67.2H31.2V69.6H28.8zM31.2,67.2H33.6V69.6H31.2zM33.6,67.2H36V69.6H33.6zM38.4,67.2H40.8V69.6H38.4zM43.2,67.2H45.6V69.6H43.2zM45.6,67.2H48V69.6H45.6zM50.4,67.2H52.8V69.6H50.4zM52.8,67.2H55.2V69.6H52.8zM57.6,67.2H60V69.6H57.6zM62.4,67.2H64.8V69.6H62.4zM64.8,67.2H67.2V69.6H64.8zM67.2,67.2H69.6V69.6H67.2zM69.6,67.2H72V69.6H69.6zM72,67.2H74.4V69.6H72zM74.4,67.2H76.8V69.6H74.4zM76.8,67.2H79.2V69.6H76.8zM79.2,67.2H81.6V69.6H79.2zM84,67.2H86.4V69.6H84zM86.4,67.2H88.8V69.6H86.4zM38.4,69.6H40.8V72H38.4zM40.8,69.6H43.2V72H40.8zM43.2,69.6H45.6V72H43.2zM48,69.6H50.4V72H48zM52.8,69.6H55.2V72H52.8zM62.4,69.6H64.8V72H62.4zM67.2,69.6H69.6V72H67.2zM76.8,69.6H79.2V72H76.8zM79.2,69.6H81.6V72H79.2zM84,69.6H86.4V72H84zM86.4,69.6H88.8V72H86.4zM19.2,72H21.6V74.4H19.2zM21.6,72H24V74.4H21.6zM24,72H26.4V74.4H24zM26.4,72H28.8V74.4H26.4zM28.8,72H31.2V74.4H28.8zM31.2,72H33.6V74.4H31.2zM33.6,72H36V74.4H33.6zM38.4,72H40.8V74.4H38.4zM43.2,72H45.6V74.4H43.2zM52.8,72H55.2V74.4H52.8zM55.2,72H57.6V74.4H55.2zM60,72H62.4V74.4H60zM67.2,72H69.6V74.4H67.2zM72,72H74.4V74.4H72zM76.8,72H79.2V74.4H76.8zM81.6,72H84V74.4H81.6zM84,72H86.4V74.4H84zM19.2,74.4H21.6V76.8H19.2zM33.6,74.4H36V76.8H33.6zM45.6,74.4H48V76.8H45.6zM50.4,74.4H52.8V76.8H50.4zM52.8,74.4H55.2V76.8H52.8zM57.6,74.4H60V76.8H57.6zM60,74.4H62.4V76.8H60zM62.4,74.4H64.8V76.8H62.4zM64.8,74.4H67.2V76.8H64.8zM67.2,74.4H69.6V76.8H67.2zM76.8,74.4H79.2V76.8H76.8zM84,74.4H86.4V76.8H84zM86.4,74.4H88.8V76.8H86.4zM19.2,76.8H21.6V79.2H19.2zM24,76.8H26.4V79.2H24zM26.4,76.8H28.8V79.2H26.4zM28.8,76.8H31.2V79.2H28.8zM33.6,76.8H36V79.2H33.6zM40.8,76.8H43.2V79.2H40.8zM43.2,76.8H45.6V79.2H43.2zM48,76.8H50.4V79.2H48zM50.4,76.8H52.8V79.2H50.4zM55.2,76.8H57.6V79.2H55.2zM67.2,76.8H69.6V79.2H67.2zM69.6,76.8H72V79.2H69.6zM72,76.8H74.4V79.2H72zM74.4,76.8H76.8V79.2H74.4zM76.8,76.8H79.2V79.2H76.8zM79.2,76.8H81.6V79.2H79.2zM81.6,76.8H84V79.2H81.6zM84,76.8H86.4V79.2H84zM19.2,79.2H21.6V81.6H19.2zM24,79.2H26.4V81.6H24zM26.4,79.2H28.8V81.6H26.4zM28.8,79.2H31.2V81.6H28.8zM33.6,79.2H36V81.6H33.6zM38.4,79.2H40.8V81.6H38.4zM40.8,79.2H43.2V81.6H40.8zM43.2,79.2H45.6V81.6H43.2zM45.6,79.2H48V81.6H45.6zM48,79.2H50.4V81.6H48zM50.4,79.2H52.8V81.6H50.4zM55.2,79.2H57.6V81.6H55.2zM57.6,79.2H60V81.6H57.6zM60,79.2H62.4V81.6H60zM62.4,79.2H64.8V81.6H62.4zM69.6,79.2H72V81.6H69.6zM72,79.2H74.4V81.6H72zM74.4,79.2H76.8V81.6H74.4zM76.8,79.2H79.2V81.6H76.8zM81.6,79.2H84V81.6H81.6zM19.2,81.6H21.6V84H19.2zM24,81.6H26.4V84H24zM26.4,81.6H28.8V84H26.4zM28.8,81.6H31.2V84H28.8zM33.6,81.6H36V84H33.6zM38.4,81.6H40.8V84H38.4zM43.2,81.6H45.6V84H43.2zM45.6,81.6H48V84H45.6zM48,81.6H50.4V84H48zM60,81.6H62.4V84H60zM64.8,81.6H67.2V84H64.8zM69.6,81.6H72V84H69.6zM79.2,81.6H81.6V84H79.2zM86.4,81.6H88.8V84H86.4zM19.2,84H21.6V86.4H19.2zM33.6,84H36V86.4H33.6zM43.2,84H45.6V86.4H43.2zM48,84H50.4V86.4H48zM52.8,84H55.2V86.4H52.8zM57.6,84H60V86.4H57.6zM62.4,84H64.8V86.4H62.4zM69.6,84H72V86.4H69.6zM76.8,84H79.2V86.4H76.8zM79.2,84H81.6V86.4H79.2zM84,84H86.4V86.4H84zM19.2,86.4H21.6V88.8H19.2zM21.6,86.4H24V88.8H21.6zM24,86.4H26.4V88.8H24zM26.4,86.4H28.8V88.8H26.4zM28.8,86.4H31.2V88.8H28.8zM31.2,86.4H33.6V88.8H31.2zM33.6,86.4H36V88.8H33.6zM50.4,86.4H52.8V88.8H50.4zM55.2,86.4H57.6V88.8H55.2zM57.6,86.4H60V88.8H57.6zM69.6,86.4H72V88.8H69.6zM74.4,86.4H76.8V88.8H74.4zM81.6,86.4H84V88.8H81.6zM84,86.4H86.4V88.8H84z" id="qr-path" fill="#000000" fill-opacity="1" fill-rule="nonzero" stroke="none" /></svg>