<svg xmlns="http://www.w3.org/2000/svg" width="462" height="462" viewBox="0 0 462 462" role="img" aria-label="QR code for http://192.168.1.109:5173/"><rect width="100%" height="100%" fill="#ffffff"/><path fill="#020617" d="M56,56h14v14h-14zM70,56h14v14h-14zM84,56h14v14h-14zM98,56h14v14h-14zM112,56h14v14h-14zM126,56h14v14h-14zM140,56h14v14h-14zM196,56h14v14h-14zM266,56h14v14h-14zM280,56h14v14h-14zM308,56h14v14h-14zM322,56h14v14h-14zM336,56h14v14h-14zM350,56h14v14h-14zM364,56h14v14h-14zM378,56h14v14h-14zM392,56h14v14h-14zM56,70h14v14h-14zM140,70h14v14h-14zM182,70h14v14h-14zM238,70h14v14h-14zM266,70h14v14h-14zM308,70h14v14h-14zM392,70h14v14h-14zM56,84h14v14h-14zM84,84h14v14h-14zM98,84h14v14h-14zM112,84h14v14h-14zM140,84h14v14h-14zM168,84h14v14h-14zM210,84h14v14h-14zM266,84h14v14h-14zM308,84h14v14h-14zM336,84h14v14h-14zM350,84h14v14h-14zM364,84h14v14h-14zM392,84h14v14h-14zM56,98h14v14h-14zM84,98h14v14h-14zM98,98h14v14h-14zM112,98h14v14h-14zM140,98h14v14h-14zM182,98h14v14h-14zM224,98h14v14h-14zM308,98h14v14h-14zM336,98h14v14h-14zM350,98h14v14h-14zM364,98h14v14h-14zM392,98h14v14h-14zM56,112h14v14h-14zM84,112h14v14h-14zM98,112h14v14h-14zM112,112h14v14h-14zM140,112h14v14h-14zM182,112h14v14h-14zM224,112h14v14h-14zM266,112h14v14h-14zM280,112h14v14h-14zM308,112h14v14h-14zM336,112h14v14h-14zM350,112h14v14h-14zM364,112h14v14h-14zM392,112h14v14h-14zM56,126h14v14h-14zM140,126h14v14h-14zM196,126h14v14h-14zM210,126h14v14h-14zM224,126h14v14h-14zM238,126h14v14h-14zM266,126h14v14h-14zM280,126h14v14h-14zM308,126h14v14h-14zM392,126h14v14h-14zM56,140h14v14h-14zM70,140h14v14h-14zM84,140h14v14h-14zM98,140h14v14h-14zM112,140h14v14h-14zM126,140h14v14h-14zM140,140h14v14h-14zM168,140h14v14h-14zM196,140h14v14h-14zM224,140h14v14h-14zM252,140h14v14h-14zM280,140h14v14h-14zM308,140h14v14h-14zM322,140h14v14h-14zM336,140h14v14h-14zM350,140h14v14h-14zM364,140h14v14h-14zM378,140h14v14h-14zM392,140h14v14h-14zM168,154h14v14h-14zM210,154h14v14h-14zM238,154h14v14h-14zM266,154h14v14h-14zM56,168h14v14h-14zM70,168h14v14h-14zM84,168h14v14h-14zM112,168h14v14h-14zM126,168h14v14h-14zM140,168h14v14h-14zM154,168h14v14h-14zM168,168h14v14h-14zM224,168h14v14h-14zM238,168h14v14h-14zM252,168h14v14h-14zM294,168h14v14h-14zM308,168h14v14h-14zM364,168h14v14h-14zM70,182h14v14h-14zM98,182h14v14h-14zM126,182h14v14h-14zM154,182h14v14h-14zM182,182h14v14h-14zM210,182h14v14h-14zM224,182h14v14h-14zM252,182h14v14h-14zM308,182h14v14h-14zM322,182h14v14h-14zM392,182h14v14h-14zM56,196h14v14h-14zM84,196h14v14h-14zM112,196h14v14h-14zM140,196h14v14h-14zM168,196h14v14h-14zM196,196h14v14h-14zM210,196h14v14h-14zM224,196h14v14h-14zM252,196h14v14h-14zM280,196h14v14h-14zM308,196h14v14h-14zM322,196h14v14h-14zM336,196h14v14h-14zM364,196h14v14h-14zM378,196h14v14h-14zM392,196h14v14h-14zM70,210h14v14h-14zM98,210h14v14h-14zM126,210h14v14h-14zM154,210h14v14h-14zM182,210h14v14h-14zM196,210h14v14h-14zM224,210h14v14h-14zM238,210h14v14h-14zM252,210h14v14h-14zM280,210h14v14h-14zM294,210h14v14h-14zM308,210h14v14h-14zM322,210h14v14h-14zM336,210h14v14h-14zM378,210h14v14h-14zM56,224h14v14h-14zM84,224h14v14h-14zM112,224h14v14h-14zM140,224h14v14h-14zM168,224h14v14h-14zM196,224h14v14h-14zM210,224h14v14h-14zM224,224h14v14h-14zM238,224h14v14h-14zM252,224h14v14h-14zM266,224h14v14h-14zM280,224h14v14h-14zM308,224h14v14h-14zM322,224h14v14h-14zM350,224h14v14h-14zM378,224h14v14h-14zM392,224h14v14h-14zM70,238h14v14h-14zM98,238h14v14h-14zM126,238h14v14h-14zM154,238h14v14h-14zM182,238h14v14h-14zM196,238h14v14h-14zM210,238h14v14h-14zM252,238h14v14h-14zM294,238h14v14h-14zM308,238h14v14h-14zM322,238h14v14h-14zM350,238h14v14h-14zM392,238h14v14h-14zM56,252h14v14h-14zM84,252h14v14h-14zM112,252h14v14h-14zM140,252h14v14h-14zM168,252h14v14h-14zM238,252h14v14h-14zM252,252h14v14h-14zM280,252h14v14h-14zM294,252h14v14h-14zM322,252h14v14h-14zM336,252h14v14h-14zM364,252h14v14h-14zM378,252h14v14h-14zM392,252h14v14h-14zM70,266h14v14h-14zM98,266h14v14h-14zM126,266h14v14h-14zM154,266h14v14h-14zM182,266h14v14h-14zM224,266h14v14h-14zM238,266h14v14h-14zM266,266h14v14h-14zM294,266h14v14h-14zM308,266h14v14h-14zM322,266h14v14h-14zM350,266h14v14h-14zM378,266h14v14h-14zM56,280h14v14h-14zM84,280h14v14h-14zM112,280h14v14h-14zM140,280h14v14h-14zM168,280h14v14h-14zM210,280h14v14h-14zM224,280h14v14h-14zM238,280h14v14h-14zM252,280h14v14h-14zM266,280h14v14h-14zM280,280h14v14h-14zM294,280h14v14h-14zM308,280h14v14h-14zM322,280h14v14h-14zM336,280h14v14h-14zM350,280h14v14h-14zM168,294h14v14h-14zM182,294h14v14h-14zM238,294h14v14h-14zM252,294h14v14h-14zM280,294h14v14h-14zM336,294h14v14h-14zM350,294h14v14h-14zM364,294h14v14h-14zM378,294h14v14h-14zM392,294h14v14h-14zM56,308h14v14h-14zM70,308h14v14h-14zM84,308h14v14h-14zM98,308h14v14h-14zM112,308h14v14h-14zM126,308h14v14h-14zM140,308h14v14h-14zM168,308h14v14h-14zM196,308h14v14h-14zM266,308h14v14h-14zM280,308h14v14h-14zM308,308h14v14h-14zM336,308h14v14h-14zM378,308h14v14h-14zM392,308h14v14h-14zM56,322h14v14h-14zM140,322h14v14h-14zM168,322h14v14h-14zM182,322h14v14h-14zM238,322h14v14h-14zM252,322h14v14h-14zM266,322h14v14h-14zM280,322h14v14h-14zM336,322h14v14h-14zM350,322h14v14h-14zM378,322h14v14h-14zM392,322h14v14h-14zM56,336h14v14h-14zM84,336h14v14h-14zM98,336h14v14h-14zM112,336h14v14h-14zM140,336h14v14h-14zM168,336h14v14h-14zM196,336h14v14h-14zM238,336h14v14h-14zM252,336h14v14h-14zM280,336h14v14h-14zM294,336h14v14h-14zM308,336h14v14h-14zM322,336h14v14h-14zM336,336h14v14h-14zM56,350h14v14h-14zM84,350h14v14h-14zM98,350h14v14h-14zM112,350h14v14h-14zM140,350h14v14h-14zM182,350h14v14h-14zM238,350h14v14h-14zM252,350h14v14h-14zM266,350h14v14h-14zM280,350h14v14h-14zM294,350h14v14h-14zM336,350h14v14h-14zM364,350h14v14h-14zM56,364h14v14h-14zM84,364h14v14h-14zM98,364h14v14h-14zM112,364h14v14h-14zM140,364h14v14h-14zM168,364h14v14h-14zM196,364h14v14h-14zM252,364h14v14h-14zM266,364h14v14h-14zM280,364h14v14h-14zM294,364h14v14h-14zM336,364h14v14h-14zM350,364h14v14h-14zM392,364h14v14h-14zM56,378h14v14h-14zM140,378h14v14h-14zM168,378h14v14h-14zM182,378h14v14h-14zM224,378h14v14h-14zM238,378h14v14h-14zM252,378h14v14h-14zM280,378h14v14h-14zM294,378h14v14h-14zM336,378h14v14h-14zM350,378h14v14h-14zM378,378h14v14h-14zM56,392h14v14h-14zM70,392h14v14h-14zM84,392h14v14h-14zM98,392h14v14h-14zM112,392h14v14h-14zM126,392h14v14h-14zM140,392h14v14h-14zM168,392h14v14h-14zM196,392h14v14h-14zM238,392h14v14h-14zM252,392h14v14h-14zM280,392h14v14h-14zM294,392h14v14h-14zM308,392h14v14h-14zM322,392h14v14h-14zM378,392h14v14h-14zM392,392h14v14h-14z"/></svg>